Coordinates
version=1
nRows=6
nColumns=63
inDegrees=yes

Units are S.I. units (second, meters, Newtons, ...)
If the header above contains a line with 'inDegrees', this indicates whether rotational values are in degrees (yes) or radians (no).

endheader
time	pelvis_tilt	pelvis_list	pelvis_rotation	pelvis_tx	pelvis_ty	pelvis_tz	hip_flexion_r	hip_adduction_r	hip_rotation_r	knee_angle_r	knee_angle_r_beta	ankle_angle_r	subtalar_angle_r	mtp_angle_r	hip_flexion_l	hip_adduction_l	hip_rotation_l	knee_angle_l	knee_angle_l_beta	ankle_angle_l	subtalar_angle_l	mtp_angle_l	L5_S1_Flex_Ext	L5_S1_Lat_Bending	L5_S1_axial_rotation	L4_L5_Flex_Ext	L4_L5_Lat_Bending	L4_L5_axial_rotation	L3_L4_Flex_Ext	L3_L4_Lat_Bending	L3_L4_axial_rotation	L2_L3_Flex_Ext	L2_L3_Lat_Bending	L2_L3_axial_rotation	L1_L2_Flex_Ext	L1_L2_Lat_Bending	L1_L2_axial_rotation	L1_T12_Flex_Ext	L1_T12_Lat_Bending	L1_T12_axial_rotation	Abs_r3	Abs_r2	Abs_r1	Abs_t1	Abs_t2	neck_flexion	neck_bending	neck_rotation	arm_flex_r	arm_add_r	arm_rot_r	elbow_flex_r	pro_sup_r	wrist_flex_r	wrist_dev_r	arm_flex_l	arm_add_l	arm_rot_l	elbow_flex_l	pro_sup_l	wrist_flex_l	wrist_dev_l
      0.00000000	      0.85979924	     -3.75354273	     89.84022474	      0.22236506	      0.77638250	      0.71738553	     11.01438010	     -0.15366032	     -5.36651919	     10.30159497	      0.17979675	     22.27668543	      9.66672815	      0.00000000	      8.70544616	     -0.93475040	     -5.72912896	      3.83030820	      0.06685149	     22.74860145	     -1.57444691	      0.00000000	      0.31414398	     -0.25558628	     -0.11474586	      0.58339679	     -0.33992975	     -0.12191748	      0.51610714	     -0.62143247	     -0.12191748	      0.35903515	     -0.62143247	     -0.10040263	      0.29171410	     -0.52119154	     -0.09323101	      0.17950187	     -0.39590314	     -0.08605939	      2.24389904	     -2.89124308	     -0.63818204	      0.00000000	      0.00000000	     27.92748069	      0.65841488	    -11.24155737	     13.39091006	     -8.40500800	     60.48969323	     47.16095526	     86.77728361	     18.21876474	      6.11557464	      7.11774485	    -18.22343167	     50.72582386	     60.85527282	     62.40213320	      2.66395315	     -9.34473149
      0.01754386	      0.72757014	     -3.46176661	     90.64117857	      0.22244966	      0.77678147	      0.71747263	     10.30053386	     -0.26834543	     -5.57338847	      9.66595955	      0.16870282	     22.72638771	      9.09154665	      0.00000000	      8.97236741	     -0.84045312	     -5.76025896	      4.84861281	      0.08462426	     23.16338039	     -0.71866022	      0.00000000	      0.29470965	     -0.27627740	     -0.30183309	      0.54730529	     -0.36744894	     -0.32069765	      0.48417848	     -0.67174087	     -0.32069765	      0.33682366	     -0.67174087	     -0.26410395	      0.27366738	     -0.56338487	     -0.24523938	      0.16839709	     -0.42795369	     -0.22637481	      2.10508156	     -3.12530520	     -1.67870507	      0.00000000	      0.00000000	     27.77386350	      1.04118746	    -10.36748684	     12.70439856	     -7.73097340	     58.56426914	     46.82804597	     86.89596152	     16.80963295	      6.54897782	      7.09739516	    -18.48449321	     50.61048342	     61.13029075	     60.94768494	      2.30777297	     -7.70716217
      0.03508772	      0.65378346	     -3.28584295	     91.30730759	      0.22240032	      0.77702718	      0.71760301	      9.79450580	     -0.33900042	     -5.86483690	      9.19516668	      0.16048593	     22.94500586	      8.68904181	      0.00000000	      9.24506269	     -0.78401335	     -5.59457029	      5.63700223	      0.09838425	     23.46765495	     -0.24310716	      0.00000000	      0.28046865	     -0.28964809	     -0.44085448	      0.52085833	     -0.38523196	     -0.46840788	      0.46078194	     -0.70425036	     -0.46840788	      0.32054762	     -0.70425036	     -0.38574767	      0.26044319	     -0.59065038	     -0.35819426	      0.16025979	     -0.44866489	     -0.33064086	      2.00335952	     -3.27655709	     -2.45190035	      0.00000000	      0.00000000	     27.66186131	      1.35019389	     -9.68249026	     12.13983992	     -7.24072337	     56.84890973	     46.58979219	     87.08556690	     16.44285276	      6.72980510	      7.20936216	    -18.66684179	     50.88555808	     61.15823608	     60.32329735	      1.75194893	     -7.24061303
      0.05263158	      0.54538100	     -3.20864819	     91.73389325	      0.22249432	      0.77718154	      0.71765170	      9.45418479	     -0.45317949	     -6.30070703	      8.83230696	      0.15415284	     23.04154463	      8.78375477	      0.00000000	      9.49976353	     -0.67243197	     -5.09099782	      6.22306389	      0.10861295	     23.57606986	     -0.54804911	      0.00000000	      0.27307487	     -0.30873078	     -0.53761399	      0.50712734	     -0.41061193	     -0.57121486	      0.44863471	     -0.75064801	     -0.57121486	      0.31209727	     -0.75064801	     -0.47041224	      0.25357733	     -0.62956380	     -0.43681137	      0.15603498	     -0.47822397	     -0.40321049	      1.95054650	     -3.49242429	     -2.99004772	      0.00000000	      0.00000000	     27.60793646	      1.70594208	     -9.14304494	     11.79630722	     -6.91368588	     55.92667996	     46.53727071	     87.15785505	     15.97411953	      6.77380420	      7.18547519	    -18.81720794	     50.99566123	     61.08515036	     60.45172247	      1.36801556	     -7.52039892
      0.07017544	      0.50277785	     -3.21317184	     92.04733754	      0.22253426	      0.77720324	      0.71781930	      9.25736071	     -0.49149704	     -6.52560962	      8.53148620	      0.14890252	     22.99158913	      8.69745240	      0.00000000	      9.81738133	     -0.61372524	     -4.47968708	      6.76872950	      0.11813662	     23.70600556	     -1.13061861	      0.00000000	      0.26935904	     -0.31862448	     -0.61656269	      0.50022667	     -0.42377056	     -0.65509786	      0.44252996	     -0.77470356	     -0.65509786	      0.30785044	     -0.77470356	     -0.53949235	      0.25012680	     -0.64973904	     -0.50095719	      0.15391175	     -0.49354932	     -0.46242202	      1.92400467	     -3.60434382	     -3.42913672	      0.00000000	      0.00000000	     27.61875313	      2.15921392	     -8.46250944	     11.74233498	     -6.76372798	     55.69763382	     46.53566915	     87.37709071	     15.95564514	      6.57849709	      7.23649962	    -18.95791663	     51.38708223	     60.92438576	     60.96044720	      0.68456370	     -8.52534502
      0.08771930	      0.43624389	     -3.25954824	     92.03183710	      0.22283340	      0.77720296	      0.71787582	      9.21237068	     -0.52910264	     -6.39877440	      8.38953931	      0.14642508	     22.88359680	      8.64227885	      0.00000000	     10.00817578	     -0.54665694	     -4.07963157	      7.05094379	      0.12306218	     23.77177981	     -1.83505377	      0.00000000	      0.26903923	     -0.32954887	     -0.64497670	      0.49963276	     -0.43830000	     -0.68528774	      0.44200455	     -0.80126512	     -0.68528774	      0.30748494	     -0.80126512	     -0.56435461	      0.24982983	     -0.67201606	     -0.52404357	      0.15372902	     -0.51047120	     -0.48373252	      1.92172032	     -3.72792273	     -3.58716690	      0.00000000	      0.00000000	     27.66984141	      2.62365095	     -7.76494346	     11.85079840	     -6.73057337	     56.02762680	     46.63584859	     87.23038385	     15.93371183	      6.53102871	      7.17344923	    -19.07648831	     51.67558202	     60.75355885	     61.72415023	     -0.08740508	     -9.99284465
